<svg width="329" height="65" viewBox="0 0 329 65" fill="none" xmlns="http://www.w3.org/2000/svg">
<path d="M5.456 55.912C6.608 55.768 7.76 55.552 8.984 55.624C12.08 55.696 15.176 55.336 18.2 54.4C21.656 53.32 23.672 51.016 24.896 47.776C25.04 47.272 24.968 46.696 24.896 46.12C24.752 44.824 24.536 43.528 24.392 42.232L23.312 31.72C23.312 31.504 23.384 31.216 23.384 31.144C27.056 29.056 30.944 28.768 34.904 28.552C35.048 28.768 35.12 29.128 35.264 29.416C36.776 29.416 37.64 28.624 38 27.472C38.144 25.024 36.2 24.016 34.76 23.08C33.176 21.928 31.16 22.648 29.432 23.152L29.36 23.44C29.504 23.656 29.576 23.8 29.72 23.944C25.256 25.312 21.296 27.4 18.704 31.504C18.56 31.072 18.488 30.784 18.344 30.208C17.84 32.584 18.632 34.6 18.992 36.616C19.28 38.2 19.856 39.784 20.072 41.368C20.576 45.544 20.36 46.624 16.184 48.352C14.024 49.144 11.936 49.864 9.488 49.504C7.328 49.216 5.096 49.576 2.864 49.648C2 49.648 1.712 50.152 1.28 50.872C0.704 51.808 0.92 52.888 0.272 53.824C1.856 54.976 3.368 56.056 5.456 55.912ZM21.008 30.352C20.936 30.28 20.864 30.208 20.864 30.136L21.08 29.92C21.152 29.992 21.152 30.064 21.152 30.064C21.08 30.208 21.008 30.28 21.008 30.352ZM50.6523 24.088C51.3723 23.512 52.1643 22.864 52.6683 21.928C52.9563 21.208 52.5963 20.56 52.4523 19.912C51.6603 19.552 51.1563 19.84 50.7243 20.632C50.4363 19.48 49.9323 18.832 48.8523 18.688C47.7003 19.624 47.3403 20.992 47.2683 22.36C47.1963 22.648 47.4843 23.08 47.7723 23.152C47.9163 23.296 48.2763 23.08 48.6363 23.08C49.2843 24.16 49.9323 24.664 50.6523 24.088ZM43.8843 56.632C44.0283 56.56 44.1723 56.416 44.3883 56.272C45.1803 55.624 46.1163 55.048 46.9803 54.328C47.3403 53.968 47.6283 53.392 48.1323 52.816C47.1243 52.888 46.1883 52.888 45.3963 52.672C45.4683 51.952 46.6203 51.736 46.1163 51.232L43.9563 53.104C43.9563 53.104 44.1723 53.104 44.3883 53.248C43.9563 54.04 43.3083 54.4 42.3003 54.472C42.1563 54.256 42.0123 54.04 42.0123 53.824C41.5083 52.096 41.2923 50.368 41.5083 48.64C41.6523 47.272 41.6523 45.904 42.2283 44.608C42.3003 44.392 42.2283 44.032 42.2283 43.744C42.2283 42.952 42.0843 42.088 42.3723 41.44C43.1643 39.424 44.1723 37.624 45.1803 35.536L45.4683 36.328C46.0443 35.464 46.4763 34.528 46.9803 33.736C47.2683 33.232 47.5563 32.872 47.9163 32.512C48.7803 31.72 48.8523 31.36 48.4203 30.064C47.9883 29.848 47.6283 30.064 47.4123 30.496C47.2683 31.072 46.6203 30.496 46.3323 30.928C46.1163 31.216 45.8283 31.504 45.5403 31.792L44.7483 31.288C45.6843 30.496 46.4043 29.992 47.1243 29.344C46.7643 29.056 45.6843 28.768 45.3963 28.48C44.4603 29.344 43.7403 30.424 43.2363 31.504C42.7323 32.44 42.3723 33.376 41.8683 34.312C39.4923 38.632 37.3323 43.024 36.9003 47.992C36.7563 50.152 36.5403 52.312 37.3323 54.4C38.3403 57.28 41.2203 58.144 43.8843 56.632ZM77.1725 33.016C75.4445 30.496 70.9805 29.128 68.2445 32.944C68.5325 33.088 68.7485 33.232 69.1085 33.52C68.0285 33.952 67.0205 34.312 65.9405 34.672C66.1565 34.024 66.3005 33.736 66.5885 32.944L62.7005 34.888C62.9165 34.024 63.3485 33.16 63.8525 32.44C64.6445 31.504 65.7245 30.64 64.7885 29.2C64.7165 29.128 65.0765 28.768 65.0765 28.48C65.0765 28.192 65.0045 27.832 64.9325 27.544C63.8525 29.2 62.7005 30.496 61.6205 32.08C61.9085 30.64 62.1965 29.2 61.4045 27.904C61.9805 27.328 62.5565 26.824 63.2045 26.248C62.7725 25.744 62.5565 25.528 62.1245 25.168C60.1085 27.256 58.8845 29.704 57.5885 32.152C57.9485 32.152 58.2365 32.08 58.3805 32.08L56.4365 35.752C55.0685 38.488 53.4845 41.224 52.8365 44.248C52.4765 45.688 52.1165 47.128 51.9005 48.568C51.8285 49.72 52.4045 50.224 53.4845 49.792C54.0605 49.576 54.5645 49 54.9245 48.568C59.2445 43.6 64.3565 39.712 70.3325 36.976C71.2685 36.544 72.2045 36.184 73.5005 36.4C73.5725 37.192 73.7165 37.912 73.6445 38.704C73.5005 39.568 73.2845 40.504 72.9965 41.296C72.9965 41.584 72.8525 42.016 72.6365 42.16C71.6285 43.168 71.4845 44.536 71.1965 45.76C70.5485 47.92 69.9725 50.008 69.4685 52.168L67.5965 59.872C67.3085 61.312 67.6685 61.96 69.0365 62.608C69.3245 62.752 69.6845 62.824 69.9005 63.112C70.7645 64.12 71.8445 63.904 72.7085 63.472C73.8605 62.32 74.2205 61.24 73.8605 59.8C73.6445 59.224 73.7885 58.504 73.9325 57.856L74.7965 54.472C76.0205 49.576 77.2445 44.752 78.5405 39.856C79.1885 37.336 78.5405 35.032 77.1725 33.016ZM58.5245 32.008C58.5245 31.792 58.4525 31.648 58.5245 31.504C58.7405 31.216 58.9565 31.072 59.1005 30.784C59.5325 31.504 59.0285 31.792 58.5245 32.008ZM84.9868 54.904C88.5148 54.616 91.8988 53.608 95.0668 52.24C98.0908 50.944 100.899 49.36 103.203 46.984C104.211 45.904 105.219 44.824 105.651 43.384C105.795 42.952 105.723 42.448 105.651 41.944C105.507 41.512 105.435 40.936 104.787 41.008C104.283 40.144 103.203 40.36 102.771 39.784C101.547 41.08 100.611 42.376 99.3148 43.384C94.2748 47.344 88.5148 49.36 82.1788 49.72C81.6028 49.792 80.9548 49.576 80.1628 49.432C80.3788 48.496 80.4508 47.632 80.7388 46.912C81.7468 44.32 83.1868 42.016 84.9868 39.928C87.8668 36.616 91.5388 34.312 95.2108 32.08C96.3628 31.36 97.6588 30.856 98.9548 30.352C100.683 29.632 102.483 29.2 104.355 29.128C105.723 29.056 106.227 29.56 106.299 30.928C106.371 31.216 106.227 31.504 106.371 31.72C106.515 32.08 106.803 32.368 107.019 32.728C107.379 32.44 107.523 32.368 107.739 32.224C108.531 33.232 108.819 33.376 109.395 33.232C110.259 33.016 110.403 32.296 110.619 31.648C111.339 29.128 109.611 26.248 106.947 25.816C106.083 25.672 105.219 25.456 104.643 24.736C104.283 24.304 103.779 24.16 103.203 24.16C102.411 24.232 101.619 24.16 100.899 24.304C98.2348 24.88 95.7148 25.672 93.3388 27.04C92.5468 27.472 91.3948 27.544 91.5388 28.984C91.5388 29.056 91.3228 29.128 91.1788 29.272C90.6028 29.776 90.0988 30.28 89.4508 30.784C88.0828 31.936 86.6428 33.016 85.2748 34.168C85.0588 34.312 84.7708 34.384 84.5548 34.456L82.8988 35.968C82.6828 36.976 82.0348 37.624 81.1708 37.984C81.0268 38.056 81.0268 38.128 80.9548 38.2C81.0988 38.92 80.5228 39.28 80.0908 39.64C79.8028 40.072 79.6588 40.504 79.3708 40.936C77.8587 43.096 76.8507 45.328 76.9947 47.992C76.9947 48.424 76.8507 48.856 76.7787 49.288C76.1307 52.312 77.2827 53.896 80.3788 54.184C80.6668 54.184 81.0268 54.256 81.3148 54.4C82.4668 55.048 83.6908 54.976 84.9868 54.904ZM79.1548 52.816C77.3547 51.88 77.1387 51.52 77.4267 49.792C78.0027 50.728 78.4348 51.592 79.1548 52.816ZM125.467 53.752H128.059C131.155 53.752 134.035 52.96 136.699 51.376C138.139 50.584 138.139 48.784 136.771 47.704C136.051 47.128 135.331 46.624 134.755 46.264C133.243 46.768 131.875 47.416 130.507 47.776C129.139 48.208 127.699 48.352 126.187 48.64C126.403 48.856 126.475 49.072 126.691 49.288C121.219 48.856 119.059 47.128 118.987 43.312C119.275 43.168 119.707 43.024 120.066 42.88C123.379 41.44 126.907 40.288 130.147 38.416C133.459 36.472 136.699 34.456 139.507 31.864C140.515 30.928 141.379 29.92 141.955 28.624C142.891 26.536 142.459 25.168 140.371 24.088L139.435 24.88C139.363 23.656 140.083 24.304 140.371 24.088C139.795 23.8 139.147 23.512 138.499 23.152C137.491 22.576 136.483 22.576 135.475 23.152C133.891 24.016 132.307 24.88 130.795 25.888C129.57 26.68 128.347 27.544 127.123 28.48C126.547 28.912 126.043 29.416 125.611 30.064C124.531 31.576 123.091 32.728 121.579 33.808C119.851 34.888 118.267 36.184 116.899 37.696C116.611 38.056 116.107 38.272 115.675 38.488C114.307 39.352 112.723 39.28 111.211 39.208L111.283 39.136C110.779 39.568 110.274 39.928 109.77 40.288C109.698 41.008 109.698 41.656 109.626 42.16C110.851 43.888 112.435 42.736 113.803 42.808C113.875 43.456 113.875 44.032 113.947 44.68C114.019 44.968 114.091 45.328 114.307 45.616C114.739 46.192 115.243 46.84 115.747 47.416C116.107 47.776 116.395 48.352 116.827 48.496C118.627 49.072 119.419 50.728 120.859 51.736C120.715 52.024 120.571 52.168 120.427 52.384C122.083 52.96 123.667 53.752 125.467 53.752ZM123.739 36.544C125.755 34.528 128.059 32.8 130.723 31.288L130.939 32.152C129.643 33.52 126.475 35.536 123.739 36.544ZM117.331 44.968C117.115 44.392 116.899 43.96 117.547 43.672C117.475 44.032 117.403 44.392 117.331 44.968ZM179.069 57.856C180.005 55.84 180.725 53.968 181.661 52.096C184.829 45.76 187.997 39.424 191.309 33.16C193.685 28.624 196.277 24.16 198.725 19.696C200.957 15.664 203.333 11.704 204.773 7.24C206.429 6.376 208.733 6.16 209.309 3.928L208.805 1.552C208.445 1.696 208.229 1.768 207.941 1.84L207.077 0.471998C206.285 0.543997 205.493 0.543997 204.773 0.759999C203.981 0.903997 203.189 1.336 202.469 1.624H202.253C195.125 3.208 188.573 6.304 182.093 9.472C179.285 10.84 177.485 12.784 177.701 16.312L179.357 16.456C180.437 17.752 180.797 17.824 182.237 16.96C183.029 16.456 183.821 15.88 184.685 15.448C188.573 13.576 192.533 11.848 196.493 10.048C196.853 9.904 197.141 9.832 197.789 9.688L196.781 11.704C195.845 13.72 194.405 15.376 193.829 17.608C193.541 18.904 192.821 20.2 192.101 21.424C190.229 24.304 188.789 27.4 186.557 30.064C183.029 37.336 179.429 44.536 175.901 51.808C175.469 52.6 175.325 53.464 175.109 54.328C175.037 54.472 175.253 54.688 175.325 54.832L176.765 54.976C176.621 57.856 177.053 58.288 179.069 57.856ZM192.317 23.584L193.469 20.344C193.757 22 192.965 22.72 192.317 23.584ZM191.093 29.56L190.013 28.336L191.669 25.096L191.957 25.168L191.021 27.688L192.029 27.112C192.245 28.192 191.597 28.912 191.093 29.56ZM216.409 57.712C217.345 58.36 217.921 57.712 218.425 57.28C220.729 55.192 223.105 53.32 225.049 51.016C230.089 45.328 234.913 39.496 239.809 33.664C242.833 30.064 245.857 26.32 248.881 22.648C250.465 20.704 252.049 18.832 254.137 17.392C255.145 16.744 255.937 15.88 256.729 15.016C257.593 14.008 257.665 12.784 256.945 11.632C256.801 11.416 256.585 11.2 256.585 10.912C256.657 8.824 255.433 7.168 254.353 5.512C253.705 4.36 252.697 3.496 251.401 2.992C247.585 1.48 243.769 1.768 240.169 3.496C238.297 4.432 236.641 5.872 234.841 7.024C232.321 8.608 230.665 11.056 229.369 13.648C228.793 14.8 228.289 16.096 228.937 17.248C229.801 18.832 230.881 20.272 232.105 21.64C232.681 22.288 233.617 22.72 234.481 22.864C236.065 23.152 237.721 23.08 239.377 23.152C239.881 23.152 240.385 23.008 241.321 22.864C239.665 25.024 238.225 26.968 236.785 28.768C232.465 34.168 228.073 39.568 224.185 45.256C223.681 45.976 223.321 46.696 222.673 47.272C219.649 49.936 216.913 53.032 212.809 54.688L213.889 56.128C214.609 55.768 215.041 55.48 215.545 55.192C215.977 54.976 216.337 54.616 216.769 54.256C217.561 55.624 216.625 56.632 216.409 57.712ZM234.913 15.664C235.849 11.344 245.569 6.736 250.753 9.688C250.825 10.264 250.969 10.912 251.113 11.56C248.377 15.088 238.585 17.536 234.913 15.664ZM230.161 18.616C229.945 17.968 229.657 17.248 229.369 16.528C229.873 16.6 230.089 16.6 230.377 16.6C230.161 14.728 230.089 13 231.817 11.704V14.728C231.889 14.728 231.961 14.8 232.033 14.8C231.601 16.024 231.097 17.248 230.665 18.544C230.521 18.544 230.377 18.544 230.161 18.616ZM267.928 58C271.816 57.856 275.488 57.208 278.44 54.328C280.528 52.168 280.96 49.576 279.448 46.984C278.944 46.12 278.224 45.328 277.576 44.536C276.64 43.312 275.632 42.16 274.336 40.648L278.728 40.144C279.088 40.936 279.376 41.44 279.664 42.016H280.6C280.888 43.24 281.536 44.104 283.192 43.888L284.632 42.232C284.776 40.144 284.056 38.416 282.904 36.904L281.32 34.744C280.672 33.952 279.736 33.664 278.656 33.808C279.376 34.24 280.168 34.672 281.104 35.248C280.6 35.536 280.24 35.68 280.024 35.752C278.944 35.176 278.008 34.672 276.784 33.952L269.728 34.888C268.648 32.8 268.576 30.496 269.584 28.264C271.384 24.16 274.768 21.568 278.656 19.552C280.888 18.4 283.336 18.472 285.712 18.472C289.456 18.4 293.848 22.216 294.424 26.032C294.424 26.176 294.352 26.392 294.352 26.608C293.2 27.832 293.2 27.832 290.464 28.768L290.032 30.424C289.312 30.568 288.736 30.64 288.088 30.712C288.016 31.936 289.024 31.864 289.6 32.08C289.888 32.656 290.032 33.088 290.176 33.448C293.848 34.24 297.808 31.72 298.384 28.192C298.816 25.816 298.672 23.368 297.376 21.208C296.224 19.408 295.144 17.68 293.776 16.096C291.976 14.008 289.888 12.064 286.936 11.848C280.6 11.416 275.344 13.864 270.88 18.184C270.664 18.4 270.592 18.76 270.304 19.192L271.312 18.904C265.912 25.168 264.328 32.584 265.84 37.264L263.248 39.424C262.96 40.072 262.888 40.72 262.528 41.152C261.232 42.592 259.792 43.888 258.424 45.256C257.632 46.12 256.768 46.912 256.12 47.92C255.039 49.648 255.399 51.52 256.912 52.744L257.128 51.736C257.704 52.168 258.136 52.744 258.208 53.32C258.496 55.192 259.576 56.128 261.304 56.848C263.464 57.712 265.624 58.072 267.928 58ZM261.52 49.864C262.96 46.192 266.128 44.464 269.512 42.664C271.528 44.896 273.616 46.696 274.624 49.288C271.456 51.592 264.832 51.88 261.52 49.864ZM258.424 51.808C258.063 51.448 257.56 51.16 257.56 50.8C257.416 49.936 256.768 48.928 257.848 47.992C257.848 49.288 259.288 50.224 258.424 51.808ZM301.955 58L304.763 56.776C310.667 44.32 316.643 31.72 322.619 19.192L322.979 19.12C323.411 18.616 323.915 18.112 324.347 17.464C326.147 14.512 327.299 11.272 327.947 7.888C328.307 6.088 328.091 4.576 326.795 3.28C326.579 2.992 326.291 2.776 326.147 2.488C325.283 0.831998 323.843 0.615996 322.259 0.759999C321.179 0.903997 320.027 1.12 318.947 1.336C316.499 1.912 314.051 2.704 311.531 3.064C308.435 3.496 305.339 3.712 302.243 3.928C301.091 4 300.083 4.36 299.507 5.44C299.363 5.728 299.075 5.944 298.859 6.232L299.507 9.04C299.939 10.408 300.371 10.912 301.811 10.912C302.675 10.912 303.539 10.624 304.475 10.552C309.587 10.048 314.699 9.112 319.739 7.816C320.603 7.6 321.539 7.168 322.619 7.6C322.331 9.4 321.611 10.912 320.747 12.424C318.371 16.672 315.707 20.704 313.619 25.096C309.515 33.592 305.699 42.232 301.811 50.872C301.235 52.168 300.659 53.536 300.227 54.904C299.723 56.272 299.867 56.344 301.235 57.208C301.595 57.352 301.739 57.784 301.955 58ZM319.883 5.944V5.8H321.683V5.944H319.883ZM322.907 16.888C322.835 15.304 323.411 14.296 325.067 13.072L322.907 16.888Z" fill="#143959"/>
</svg>
